<svg xmlns="http://www.w3.org/2000/svg" xmlns:xlink="http://www.w3.org/1999/xlink"><symbol viewBox="0 0 130.3 143" id="i-acorn"><circle cx="35.5" cy="64.6" r="3.3"/><path d="M84.53 62.05q-5.43.31-10.88.2a3.4 3.4 0 0 0-3.46 3.2 3.33 3.33 0 0 0 3.32 3.42c3.8.08 7.61 0 11.4-.21a3.33 3.33 0 0 0 3.2-3.54 3.41 3.41 0 0 0-3.58-3.07z"/><path d="M130.26 44.63A31.12 31.12 0 0 0 124.58 27c-4.23-5.88-10.59-9.89-18.39-11.61-21.27-4.68-35.1-11.31-39.44-14.17L64.89 0l-1.83 1.25c-4.2 2.85-17.75 9.47-39 14.14C16.27 17.11 9.91 21.12 5.68 27A31.19 31.19 0 0 0 0 44.63C-.11 51.77 2.07 58 5.66 61.85a114.79 114.79 0 0 0 4.91 33.93c7.54 24.09 22.92 38.63 44.5 42.06a20.12 20.12 0 0 1 5.15 2.66c2.66 2.24 4.91 2.57 6.24 2.48h.36a9.2 9.2 0 0 0 5.89-2.5c1.49-1.26 4.9-2.64 6.81-3.26 20.19-4.38 34.38-19.14 41-42.7a114.93 114.93 0 0 0 4-32.66c3.67-3.81 5.85-10.07 5.74-17.23zM119.09 58l-.15.12a6.53 6.53 0 0 1-.94.61l-.41.18h-.1l-.44.14c-4.75 1.2-13.78 2-23 2.55a3.31 3.31 0 1 0-.54 6.57h.36v.09h11.84l.58-.06h.4c.2 0 .41 0 .6-.06h.37l.61-.07h.35l.6-.07h.32l.62-.07h.28l.63-.08h.23l.66-.09h.16c1.37-.18 2.64-.38 3.79-.59h.07l.54-.1h.18l.46-.09h.23l.41-.09h.22a108.24 108.24 0 0 1-3.79 27.09C108.13 114.15 96 127 78 130.8l-.3.08c-.63.19-6.19 2-9.23 4.55a3.89 3.89 0 0 1-1.6.94l-.38-.06-.38.06a3.82 3.82 0 0 1-1.59-.94 26.17 26.17 0 0 0-7.41-3.91l-.32-.12-.34-.05c-19.31-3-32.59-15.54-39.48-37.39a108.48 108.48 0 0 1-4.61-28.3l.28.06.33.08.35.07.33.07.35.06.34.06.42.08h.33l.48.08h.3l.57.09h.24l.72.1h.12c1.14.16 2.36.31 3.63.45h.11l.85.09h.13l.85.09h.2l.8.08h.19l.82.08h.69a4.38 4.38 0 0 0 .51 0 3.31 3.31 0 0 0 .53-6.2h-.39c-4.16-.39-9.17-1-11.84-1.54l-1.34-.3-.44-.14h-.11l-.4-.18a6.45 6.45 0 0 1-.93-.61l-.2-.23c-2.75-2.29-4.64-7.51-4.55-13.24.14-9.08 5.17-19.86 18.86-22.87C47.81 17 60.47 10.47 65 7.86c4.54 2.58 17.45 9.08 39.82 14 13.7 3 18.73 13.79 18.87 22.87.04 5.73-1.85 10.95-4.6 13.27z"/><circle cx="35.5" cy="64.6" r="3.3"/><path d="M84.53 62.05q-5.43.31-10.88.2a3.4 3.4 0 0 0-3.46 3.2 3.33 3.33 0 0 0 3.32 3.42c3.8.08 7.61 0 11.4-.21a3.33 3.33 0 0 0 3.2-3.54 3.41 3.41 0 0 0-3.58-3.07z"/><path d="M130.26 44.63A31.12 31.12 0 0 0 124.58 27c-4.23-5.88-10.59-9.89-18.39-11.61-21.27-4.68-35.1-11.31-39.44-14.17L64.89 0l-1.83 1.25c-4.2 2.85-17.75 9.47-39 14.14C16.27 17.11 9.91 21.12 5.68 27A31.19 31.19 0 0 0 0 44.63C-.11 51.77 2.07 58 5.66 61.85a114.79 114.79 0 0 0 4.91 33.93c7.54 24.09 22.92 38.63 44.5 42.06a20.12 20.12 0 0 1 5.15 2.66c2.66 2.24 4.91 2.57 6.24 2.48h.36a9.2 9.2 0 0 0 5.89-2.5c1.49-1.26 4.9-2.64 6.81-3.26 20.19-4.38 34.38-19.14 41-42.7a114.93 114.93 0 0 0 4-32.66c3.67-3.81 5.85-10.07 5.74-17.23zM119.09 58l-.15.12a6.53 6.53 0 0 1-.94.61l-.41.18h-.1l-.44.14c-4.75 1.2-13.78 2-23 2.55a3.31 3.31 0 1 0-.54 6.57h.36v.09h11.84l.58-.06h.4c.2 0 .41 0 .6-.06h.37l.61-.07h.35l.6-.07h.32l.62-.07h.28l.63-.08h.23l.66-.09h.16c1.37-.18 2.64-.38 3.79-.59h.07l.54-.1h.18l.46-.09h.23l.41-.09h.22a108.24 108.24 0 0 1-3.79 27.09C108.13 114.15 96 127 78 130.8l-.3.08c-.63.19-6.19 2-9.23 4.55a3.89 3.89 0 0 1-1.6.94l-.38-.06-.38.06a3.82 3.82 0 0 1-1.59-.94 26.17 26.17 0 0 0-7.41-3.91l-.32-.12-.34-.05c-19.31-3-32.59-15.54-39.48-37.39a108.48 108.48 0 0 1-4.61-28.3l.28.06.33.08.35.07.33.07.35.06.34.06.42.08h.33l.48.08h.3l.57.09h.24l.72.1h.12c1.14.16 2.36.31 3.63.45h.11l.85.09h.13l.85.09h.2l.8.08h.19l.82.08h.69a4.38 4.38 0 0 0 .51 0 3.31 3.31 0 0 0 .53-6.2h-.39c-4.16-.39-9.17-1-11.84-1.54l-1.34-.3-.44-.14h-.11l-.4-.18a6.45 6.45 0 0 1-.93-.61l-.2-.23c-2.75-2.29-4.64-7.51-4.55-13.24.14-9.08 5.17-19.86 18.86-22.87C47.81 17 60.47 10.47 65 7.86c4.54 2.58 17.45 9.08 39.82 14 13.7 3 18.73 13.79 18.87 22.87.04 5.73-1.85 10.95-4.6 13.27z"/></symbol></svg>