<svg id="cd545786-ca4f-4f89-a428-7fb8976309a7" data-name="Layer 1" xmlns="https://www.w3.org/2000/svg" viewBox="0 0 130.26 143"><title>icon-instagramArtboard 4</title><circle cx="35.48" cy="64.63" r="3.31"/><path d="M84.53,62.05q-5.43.31-10.88.2a3.4,3.4,0,0,0-3.46,3.2,3.33,3.33,0,0,0,3.32,3.42c3.8.08,7.61,0,11.4-.21a3.33,3.33,0,0,0,3.2-3.54A3.41,3.41,0,0,0,84.53,62.05Z"/><path d="M130.26,44.63A31.12,31.12,0,0,0,124.58,27c-4.23-5.88-10.59-9.89-18.39-11.61C84.92,10.71,71.09,4.08,66.75,1.22L64.89,0,63.06,1.25c-4.2,2.85-17.75,9.47-39,14.14C16.27,17.11,9.91,21.12,5.68,27A31.19,31.19,0,0,0,0,44.63C-.11,51.77,2.07,58,5.66,61.85a114.79,114.79,0,0,0,4.91,33.93c7.54,24.09,22.92,38.63,44.5,42.06a20.12,20.12,0,0,1,5.15,2.66c2.66,2.24,4.91,2.57,6.24,2.48l.36,0a9.2,9.2,0,0,0,5.89-2.5c1.49-1.26,4.9-2.64,6.81-3.26,20.19-4.38,34.38-19.14,41-42.7a114.93,114.93,0,0,0,4-32.66C128.19,58.05,130.37,51.79,130.26,44.63ZM119.09,58l-.15.12a6.53,6.53,0,0,1-.94.61h0l-.41.18-.1,0-.44.14c-4.75,1.2-13.78,2-23,2.55a3.31,3.31,0,1,0-.54,6.57l.36,0v.09H94l.58,0,.53,0,.58,0,.5,0,.59,0,.5,0,.59,0,.49,0,.6,0,.47,0,.61,0,.46,0,.61,0,.45,0,.62,0,.43,0,.61,0,.44,0,.6,0,.43,0,.6,0,.42,0,.58-.06.4,0c.2,0,.41,0,.6-.06l.37,0,.61-.07.35,0,.6-.07.32,0,.62-.07.28,0,.63-.08.23,0,.66-.09.16,0c1.37-.18,2.64-.38,3.79-.59h.07l.54-.1.18,0,.46-.09.23,0,.41-.09.22,0a108.24,108.24,0,0,1-3.79,27.09C108.13,114.15,96,127,78,130.8l-.3.08c-.63.19-6.19,2-9.23,4.55a3.89,3.89,0,0,1-1.6.94l-.38-.06-.38.06a3.82,3.82,0,0,1-1.59-.94,26.17,26.17,0,0,0-7.41-3.91l-.32-.12-.34-.05c-19.31-3-32.59-15.54-39.48-37.39a108.48,108.48,0,0,1-4.61-28.3l.28.06.33.08.35.07.33.07L14,66l.34.06.42.08.33,0,.48.08.3,0,.57.09.24,0,.72.1.12,0c1.14.16,2.36.31,3.63.45l.11,0,.85.09h.13l.85.09.2,0,.8.08.19,0,.82.08.24,0,.45,0h0a4.38,4.38,0,0,0,.51,0A3.31,3.31,0,0,0,26.83,61h0l-.39,0c-4.16-.39-9.17-1-11.84-1.54l-1.34-.3-.44-.14-.11,0-.4-.18h0a6.45,6.45,0,0,1-.93-.61L11.18,58c-2.75-2.29-4.64-7.51-4.55-13.24.14-9.08,5.17-19.86,18.86-22.87C47.81,17,60.47,10.47,65,7.86c4.54,2.58,17.45,9.08,39.82,14,13.7,3,18.73,13.79,18.87,22.87C123.73,50.46,121.84,55.68,119.09,58Z"/><circle cx="35.48" cy="64.63" r="3.31"/><path d="M84.53,62.05q-5.43.31-10.88.2a3.4,3.4,0,0,0-3.46,3.2,3.33,3.33,0,0,0,3.32,3.42c3.8.08,7.61,0,11.4-.21a3.33,3.33,0,0,0,3.2-3.54A3.41,3.41,0,0,0,84.53,62.05Z"/><path d="M130.26,44.63A31.12,31.12,0,0,0,124.58,27c-4.23-5.88-10.59-9.89-18.39-11.61C84.92,10.71,71.09,4.08,66.75,1.22L64.89,0,63.06,1.25c-4.2,2.85-17.75,9.47-39,14.14C16.27,17.11,9.91,21.12,5.68,27A31.19,31.19,0,0,0,0,44.63C-.11,51.77,2.07,58,5.66,61.85a114.79,114.79,0,0,0,4.91,33.93c7.54,24.09,22.92,38.63,44.5,42.06a20.12,20.12,0,0,1,5.15,2.66c2.66,2.24,4.91,2.57,6.24,2.48l.36,0a9.2,9.2,0,0,0,5.89-2.5c1.49-1.26,4.9-2.64,6.81-3.26,20.19-4.38,34.38-19.14,41-42.7a114.93,114.93,0,0,0,4-32.66C128.19,58.05,130.37,51.79,130.26,44.63ZM119.09,58l-.15.12a6.53,6.53,0,0,1-.94.61h0l-.41.18-.1,0-.44.14c-4.75,1.2-13.78,2-23,2.55a3.31,3.31,0,1,0-.54,6.57l.36,0v.09H94l.58,0,.53,0,.58,0,.5,0,.59,0,.5,0,.59,0,.49,0,.6,0,.47,0,.61,0,.46,0,.61,0,.45,0,.62,0,.43,0,.61,0,.44,0,.6,0,.43,0,.6,0,.42,0,.58-.06.4,0c.2,0,.41,0,.6-.06l.37,0,.61-.07.35,0,.6-.07.32,0,.62-.07.28,0,.63-.08.23,0,.66-.09.16,0c1.37-.18,2.64-.38,3.79-.59h.07l.54-.1.18,0,.46-.09.23,0,.41-.09.22,0a108.24,108.24,0,0,1-3.79,27.09C108.13,114.15,96,127,78,130.8l-.3.08c-.63.19-6.19,2-9.23,4.55a3.89,3.89,0,0,1-1.6.94l-.38-.06-.38.06a3.82,3.82,0,0,1-1.59-.94,26.17,26.17,0,0,0-7.41-3.91l-.32-.12-.34-.05c-19.31-3-32.59-15.54-39.48-37.39a108.48,108.48,0,0,1-4.61-28.3l.28.06.33.08.35.07.33.07L14,66l.34.06.42.08.33,0,.48.08.3,0,.57.09.24,0,.72.1.12,0c1.14.16,2.36.31,3.63.45l.11,0,.85.09h.13l.85.09.2,0,.8.08.19,0,.82.08.24,0,.45,0h0a4.38,4.38,0,0,0,.51,0A3.31,3.31,0,0,0,26.83,61h0l-.39,0c-4.16-.39-9.17-1-11.84-1.54l-1.34-.3-.44-.14-.11,0-.4-.18h0a6.45,6.45,0,0,1-.93-.61L11.18,58c-2.75-2.29-4.64-7.51-4.55-13.24.14-9.08,5.17-19.86,18.86-22.87C47.81,17,60.47,10.47,65,7.86c4.54,2.58,17.45,9.08,39.82,14,13.7,3,18.73,13.79,18.87,22.87C123.73,50.46,121.84,55.68,119.09,58Z"/></svg>